<svg xmlns="http://www.w3.org/2000/svg" viewBox="0 0 16.28 16.28"><defs><style>.cls-1{fill:#aec2bb;fill-rule:evenodd;}</style></defs><title>Fichier 5</title><g id="Calque_2" data-name="Calque 2"><g id="Calque_1-2" data-name="Calque 1"><path class="cls-1" d="M8.14,16.28a8.14,8.14,0,1,1,8.14-8.14A8.15,8.15,0,0,1,8.14,16.28Zm5-2.74A5.5,5.5,0,0,0,11.57,13c-.8-.2-1.86-.34-1.77-1.26a2.52,2.52,0,0,1-2.55.42C7,12,6.8,11.8,6.6,11.82c.06.89-1,1-1.77,1.17a4.76,4.76,0,0,0-1.64.6,7.34,7.34,0,0,0,10-.06Zm-4.47-10C6.22,3.36,5,5.05,5.37,7.53c-.1,0-.24,0-.27.15,0,.74.15,1.35.69,1.56.27,1.22,1.13,2.65,2.67,2.46a2.92,2.92,0,0,0,2.19-2.46c.52-.21.71-.91.66-1.59,0-.12-.2-.06-.27-.12C11.48,5.59,10.36,3.72,8.69,3.57ZM8.14.76A7.37,7.37,0,0,0,2.71,13.12a2.26,2.26,0,0,1,.44-.31c.79-.42,1.82-.36,2.79-.84v-.84c-.39-.35-.45-.93-.72-1.41-.16-.29-.41-.45-.54-.75a2.49,2.49,0,0,1-.24-1.26c0-.25.18-.41.21-.63s0-.63,0-.93A3.55,3.55,0,0,1,7.71,2.91h1a3.55,3.55,0,0,1,3.06,3.48c0,.22-.07.47,0,.72s.23.43.24.69a2.5,2.5,0,0,1-.81,1.92,4.07,4.07,0,0,1-.69,1.41v.81c.81.48,1.9.44,2.7.84a2.55,2.55,0,0,1,.43.28A7.37,7.37,0,0,0,8.14.76Z"/></g></g></svg>