<svg xmlns="http://www.w3.org/2000/svg" viewBox="0 0 20.1 16.49"><defs><style>.cls-1{fill:#aec2bb;fill-rule:evenodd;}</style></defs><title>Fichier 4</title><g id="Calque_2" data-name="Calque 2"><g id="Calque_1-2" data-name="Calque 1"><path class="cls-1" d="M19.91,1.65a1.09,1.09,0,0,0-1-.44c-.91,0-12.71,0-12.81,0h0a.42.42,0,0,0,0,.84c.4,0,11.91,0,12.82,0,.14,0,.24,0,.27.07s.08.32-.09.77c-.41.87-2.36,5.37-2.61,5.76l-.1.17c-.16.28-.22.37-.76.37H6.39C5.89,7.31,4.14,1.08,4.05.77L4,.72C3.74,0,3.06,0,2.35,0H.42a.42.42,0,1,0,0,.84H2.35a1.05,1.05,0,0,1,.91.61C3.41,2,5.52,9.09,5.7,9.86,6,11.25,6.86,12.16,8,12.16h7.83a.42.42,0,0,0,0-.84H8A1.58,1.58,0,0,1,6.62,10h9a1.41,1.41,0,0,0,1.48-.79l.09-.14c.27-.42,2.22-4.94,2.67-5.88A1.68,1.68,0,0,0,19.91,1.65ZM7.8,12.58a2,2,0,1,0,2,2A2,2,0,0,0,7.8,12.58Zm0,3.11A1.15,1.15,0,1,1,9,14.53,1.15,1.15,0,0,1,7.8,15.69Zm8-3.11a2,2,0,1,0,2,2A2,2,0,0,0,15.77,12.58Zm0,3.11a1.15,1.15,0,1,1,1.15-1.15A1.15,1.15,0,0,1,15.77,15.69Z"/></g></g></svg>