<?xml version="1.0" encoding="utf-8"?>
<!-- Generator: Adobe Illustrator 20.1.0, SVG Export Plug-In . SVG Version: 6.00 Build 0)  -->
<svg version="1.1" id="Calque_1" xmlns="http://www.w3.org/2000/svg" xmlns:xlink="http://www.w3.org/1999/xlink" x="0px" y="0px"
	 viewBox="0 0 16.3 16.3" style="enable-background:new 0 0 16.3 16.3;" xml:space="preserve">
<style type="text/css">
	.st0{fill:#BFBFBF;}
</style>
<title>Fichier 5</title>
<path class="st0" d="M8.1,8"/>
<path class="st0" d="M7.5,9.6c0,0.8,0,2.1,0,3.4c0.7,0,3,0.2,3,1.5c0,1.5,0,1.7,0,1.7H7.2l0,0c-0.4,0-2.4,0-2.4,0v-2.6
	c0,0,0.4-0.6,2-0.6c-0.1-1.2-0.1-2.7,0-4.2C0.9,8.3,1.7,7.5,0.9,6.4s2.4-0.5,3-0.7c0.6-0.4,3,1.4,3,1.4c0-0.1,0-0.4,0.1-0.5
	C7.4,3,8.9-0.2,12.6,0C20.8,0.4,7.5,7.9,7.5,9.6z"/>
</svg>
