<svg xmlns="http://www.w3.org/2000/svg" viewBox="0 0 14.61 12.7"><defs><style>.cls-1{fill:#afafaf;fill-rule:evenodd;}</style></defs><title>Fichier 6</title><g id="Calque_2" data-name="Calque 2"><g id="Calque_1-2" data-name="Calque 1"><path class="cls-1" d="M13.4,7.22l0,0h0l0,0c-1,1-5.21,5-5.38,5.15a1,1,0,0,1-1.34,0L1.26,7.28l0,0,0,0,0,0A4.25,4.25,0,0,1,7.3,1.29a4.25,4.25,0,1,1,6.1,5.93Zm-3-6.57A3.6,3.6,0,0,0,7.3,2.34a3.6,3.6,0,1,0-5.65,4.4h0l0,0,0,0L7.09,12a.3.3,0,0,0,.42,0s4.43-4.2,5.39-5.16h0l0,0h0A3.6,3.6,0,0,0,10.35.65ZM4.26,2.14A2.18,2.18,0,0,0,2.08,4.32a.33.33,0,1,1-.65,0A2.83,2.83,0,0,1,4.26,1.49a.33.33,0,0,1,0,.65Z"/></g></g></svg>