<svg xmlns="http://www.w3.org/2000/svg" viewBox="0 0 15.44 15.44"><defs><style>.cls-1{fill:#aec2bb;}</style></defs><title>Fichier 9</title><g id="Calque_2" data-name="Calque 2"><g id="Calque_1-2" data-name="Calque 1"><path class="cls-1" d="M14.6,15.44H9.18a.84.84,0,0,1-.83-.83V9.18a.84.84,0,0,1,.83-.83H14.6a.84.84,0,0,1,.83.83V14.6A.84.84,0,0,1,14.6,15.44ZM9.18,9.18V14.6H14.6V9.18ZM6.26,15.44H.83A.84.84,0,0,1,0,14.6V9.18a.84.84,0,0,1,.83-.83H6.26a.84.84,0,0,1,.83.83V14.6A.84.84,0,0,1,6.26,15.44ZM.83,9.18V14.6H6.26V9.18ZM14.6,7.09H9.18a.84.84,0,0,1-.83-.83V.83A.84.84,0,0,1,9.18,0H14.6a.84.84,0,0,1,.83.83V6.26A.84.84,0,0,1,14.6,7.09ZM9.18.83V6.26H14.6V.83ZM6.26,7.09H.83A.84.84,0,0,1,0,6.26V.83A.84.84,0,0,1,.83,0H6.26a.84.84,0,0,1,.83.83V6.26A.84.84,0,0,1,6.26,7.09ZM.83.83V6.26H6.26V.83Z"/></g></g></svg>