<svg xmlns="http://www.w3.org/2000/svg" viewBox="0 0 14.19 15.03"><defs><style>.cls-1{fill:#aec2bb;fill-rule:evenodd;}</style></defs><title>Fichier 8</title><g id="Calque_2" data-name="Calque 2"><g id="Calque_1-2" data-name="Calque 1"><path class="cls-1" d="M13.82,15H.37A.37.37,0,0,1,0,14.64L.73,3.27a.37.37,0,0,1,.37-.34H4.19v0a2.9,2.9,0,1,1,5.8,0s0,0,0,0h3.1a.37.37,0,0,1,.37.34l.73,11.3a.37.37,0,0,1-.35.46ZM9.25,2.9a2.17,2.17,0,1,0-4.33,0v0H9.26S9.25,2.91,9.25,2.9Zm3.48.76H10v.83a.66.66,0,0,1,.3.54A.67.67,0,0,1,9,5a.66.66,0,0,1,.3-.54V3.66H4.92v.83a.66.66,0,0,1,.3.54A.67.67,0,0,1,3.89,5a.66.66,0,0,1,.3-.54V3.66H1.44L.76,14.3H13.42Z"/></g></g></svg>