<svg xmlns="http://www.w3.org/2000/svg" viewBox="0 0 16.46 16.49"><defs><style>.cls-1{fill:#afafaf;fill-rule:evenodd;}</style></defs><title>Fichier 3</title><g id="Calque_2" data-name="Calque 2"><g id="Calque_1-2" data-name="Calque 1"><path class="cls-1" d="M16.32,16.35a.48.48,0,0,1-.68,0L11.09,11.8a6.75,6.75,0,1,1,.68-.68l4.55,4.55A.48.48,0,0,1,16.32,16.35ZM12.49,6.72A5.77,5.77,0,1,0,10.8,10.8,5.78,5.78,0,0,0,12.49,6.72ZM6.54,3A4,4,0,0,0,3.22,7.54.4.4,0,0,1,2.88,8H2.83a.4.4,0,0,1-.4-.35,4.76,4.76,0,0,1,4-5.41A.4.4,0,1,1,6.54,3Z"/></g></g></svg>